<svg width="397" height="242" viewBox="0 0 397 242" fill="none" xmlns="http://www.w3.org/2000/svg">
<path d="M189.512 111.808C197.704 97.8987 204.36 87.5733 209.48 80.832C214.686 74.0053 218.91 70.592 222.152 70.592C225.48 70.592 228.595 72.3413 231.496 75.84C234.483 79.3387 235.976 83.0507 235.976 86.976C235.976 93.12 234.568 100.629 231.752 109.504C226.632 125.888 222.024 134.08 217.928 134.08C216.051 134.08 215.112 132.8 215.112 130.24C215.112 128.448 216.008 124.821 217.8 119.36C219.678 113.813 221.384 108.395 222.92 103.104C224.542 97.728 225.352 93.7173 225.352 91.072C225.352 88.3413 224.926 86.336 224.072 85.056C223.304 83.776 222.494 83.136 221.64 83.136C220.872 83.136 220.062 83.392 219.208 83.904C218.355 84.416 217.374 85.2693 216.264 86.464C215.24 87.6587 214.259 88.8533 213.32 90.048C212.382 91.1573 211.187 92.7787 209.736 94.912C208.371 97.0453 207.219 98.88 206.28 100.416C205.342 101.867 203.976 104 202.184 106.816C200.392 109.632 199.027 111.765 198.088 113.216C197.15 114.667 195.912 116.629 194.376 119.104C192.84 121.579 191.603 123.499 190.664 124.864C189.811 126.229 188.83 127.723 187.72 129.344C185.587 132.501 183.88 134.08 182.6 134.08C181.406 134.08 179.998 133.141 178.376 131.264C176.755 129.301 175.944 127.595 175.944 126.144C175.944 125.717 176.243 124.565 176.84 122.688C178.462 117.739 180.254 111.637 182.216 104.384C184.179 97.0453 185.246 88.7253 185.416 79.424C185.672 73.1947 186.568 70.08 188.104 70.08C189.982 70.08 191.859 71.0613 193.736 73.024C195.614 74.9867 196.552 77.1627 196.552 79.552C196.552 81.856 195.827 86.3787 194.376 93.12C193.011 99.776 191.39 106.005 189.512 111.808ZM259.554 121.28C259.554 122.901 260.493 123.712 262.37 123.712C265.613 123.712 269.538 122.816 274.146 121.024C278.84 119.147 281.442 118.208 281.954 118.208C283.49 118.208 284.258 119.019 284.258 120.64C284.258 123.115 281.698 125.973 276.578 129.216C271.544 132.459 266.936 134.08 262.754 134.08C258.658 134.08 255.245 132.971 252.514 130.752C249.784 128.448 248.418 126.101 248.418 123.712C248.418 121.323 248.93 118.293 249.954 114.624C250.978 110.869 252.429 105.963 254.306 99.904C256.269 93.76 257.805 88.6827 258.914 84.672C254.904 85.6107 252.216 86.08 250.85 86.08C249.485 86.08 248.12 85.3973 246.754 84.032C245.474 82.5813 244.834 81.216 244.834 79.936C244.834 77.888 250.381 75.9253 261.474 74.048C263.01 66.9653 263.778 60.6933 263.778 55.232C263.778 52.672 264.632 51.392 266.338 51.392C267.789 51.392 269.581 52.3307 271.714 54.208C273.848 56 274.914 58.048 274.914 60.352C274.914 62.656 274.189 66.7093 272.738 72.512C277.602 72.0853 281.485 71.872 284.386 71.872C289.506 71.872 292.066 72.9813 292.066 75.2C292.066 76.48 290.658 77.5467 287.842 78.4C285.112 79.2533 279.309 80.576 270.434 82.368C268.642 89.1093 266.381 96.832 263.65 105.536C260.92 114.155 259.554 119.403 259.554 121.28ZM345.79 91.84C345.79 96.3627 343.316 100.075 338.366 102.976C333.502 105.792 327.956 107.2 321.726 107.2C315.582 107.2 309.993 106.517 304.958 105.152C303.764 108.907 303.166 112.277 303.166 115.264C303.166 118.165 304.062 120.427 305.854 122.048C307.732 123.669 310.761 124.48 314.942 124.48C319.209 124.48 323.561 123.755 327.998 122.304C332.521 120.768 334.996 120 335.422 120C337.641 120 338.75 120.853 338.75 122.56C338.75 124.864 336.148 127.381 330.942 130.112C325.737 132.757 320.66 134.08 315.71 134.08C309.054 134.08 303.636 132.117 299.454 128.192C295.273 124.181 293.182 119.147 293.182 113.088C293.182 107.029 294.804 100.715 298.046 94.144C301.289 87.488 305.47 81.8987 310.59 77.376C315.71 72.8533 320.788 70.592 325.822 70.592C330.857 70.592 335.422 72.9813 339.518 77.76C343.7 82.5387 345.79 87.232 345.79 91.84ZM326.462 80.704C323.305 80.704 320.02 82.368 316.606 85.696C313.193 88.9387 310.292 92.992 307.902 97.856C311.316 98.624 315.198 99.008 319.55 99.008C323.902 99.008 327.7 98.3253 330.942 96.96C334.185 95.5093 335.806 93.632 335.806 91.328C335.806 89.024 334.74 86.6773 332.606 84.288C330.558 81.8987 328.51 80.704 326.462 80.704ZM360.023 86.208L359.639 76.608C359.639 72.5973 360.578 70.592 362.455 70.592C364.077 70.592 365.613 71.6587 367.063 73.792C368.599 75.84 369.367 78.3147 369.367 81.216C369.367 84.032 369.282 86.1653 369.111 87.616C376.535 76.352 383.575 70.72 390.231 70.72C394.413 70.72 396.503 71.744 396.503 73.792C396.503 74.816 396.034 75.7547 395.095 76.608C394.157 77.4613 392.663 78.4427 390.615 79.552C386.093 81.5147 382.253 84.544 379.095 88.64C376.023 92.6507 373.506 97.216 371.543 102.336C369.581 107.456 368.002 111.765 366.807 115.264C365.698 118.763 364.845 121.493 364.247 123.456C363.65 125.419 362.967 127.339 362.199 129.216C360.834 132.629 359.255 134.336 357.463 134.336C356.013 134.336 354.818 133.525 353.879 131.904C353.026 130.197 352.599 128.576 352.599 127.04C352.599 125.419 353.325 122.261 354.775 117.568C358.274 106.816 360.023 96.3627 360.023 86.208Z" fill="black"/>
<path d="M146.85 159.15C145.65 159.15 144.05 157.95 142.05 155.55C140.15 153.15 139.2 150.95 139.2 148.95C139.2 146.95 142.15 133 148.05 107.1C154.05 81.1 157.1 65 157.2 58.8C157.2 57.1 157.4 55.95 157.8 55.35C158.3 54.65 159.25 54.3 160.65 54.3C162.15 54.3 164.05 55.85 166.35 58.95C168.75 62.05 169.95 65.4 169.95 69C169.95 72.5 166.35 88.9 159.15 118.2C158.45 120.9 157.5 124.8 156.3 129.9C155.1 134.9 154.15 138.75 153.45 141.45C152.75 144.15 152 147.1 151.2 150.3C149.5 156.2 148.05 159.15 146.85 159.15Z" fill="black"/>
<path d="M206.844 147.892C206.648 150.076 206.55 153.59 206.55 158.434C206.55 163.25 206.662 166.96 206.886 169.564L209.322 169.816C209.378 170.264 209.406 170.628 209.406 170.908C209.406 171.16 209.364 171.538 209.28 172.042C208.272 172.014 206.816 172 204.912 172C203.036 172 201.664 172.014 200.796 172.042C200.712 171.622 200.67 171.272 200.67 170.992C200.67 170.712 200.698 170.32 200.754 169.816L203.064 169.564C203.288 166.568 203.4 162.774 203.4 158.182C203.4 153.562 203.274 150.132 203.022 147.892C201.93 147.92 200.418 148.018 198.486 148.186L198.36 151.294C197.912 151.378 197.492 151.42 197.1 151.42C196.708 151.42 196.344 151.406 196.008 151.378C195.924 149.082 195.798 146.954 195.63 144.994L195.84 144.784C197.912 145.036 201.23 145.162 205.794 145.162C210.358 145.162 213.214 145.036 214.362 144.784L214.572 144.994C214.376 147.15 214.25 149.138 214.194 150.958C213.858 150.986 213.494 151 213.102 151C212.738 151 212.318 150.958 211.842 150.874L211.716 148.06C210.54 148.004 208.916 147.948 206.844 147.892ZM225.679 157.342C226.491 158.098 227.513 158.476 228.745 158.476C230.005 158.476 231.027 157.958 231.811 156.922C232.623 155.858 233.029 154.458 233.029 152.722C233.029 148.83 231.181 146.884 227.485 146.884C226.225 146.884 224.909 147.164 223.537 147.724C223.341 150.16 223.243 153.618 223.243 158.098C223.243 162.578 223.369 166.4 223.621 169.564L225.175 169.69C225.231 170.306 225.259 170.74 225.259 170.992C225.259 171.216 225.217 171.566 225.133 172.042C224.321 172.014 223.131 172 221.563 172C219.995 172 218.917 172.014 218.329 172.042C218.245 171.622 218.203 171.23 218.203 170.866C218.203 170.474 218.231 170.082 218.287 169.69L219.757 169.564C219.981 166.484 220.093 162.62 220.093 157.972C220.093 153.324 219.953 149.894 219.673 147.682L218.077 147.556C217.993 147.22 217.951 146.786 217.951 146.254C217.951 145.722 217.965 145.372 217.993 145.204C219.869 145.148 221.521 145.022 222.949 144.826C224.377 144.602 225.903 144.49 227.527 144.49C233.631 144.49 236.683 147.234 236.683 152.722C236.683 154.934 236.137 156.754 235.045 158.182C233.953 159.61 232.427 160.506 230.467 160.87C233.239 165.266 235.157 168.094 236.221 169.354L238.195 169.48C238.251 169.928 238.279 170.348 238.279 170.74C238.279 171.104 238.237 171.496 238.153 171.916C235.605 172 233.827 172.07 232.819 172.126L232.651 171.664C232.175 170.488 231.587 169.27 230.887 168.01C230.215 166.722 228.787 164.37 226.603 160.954C226.015 160.926 225.413 160.772 224.797 160.492C224.797 159.932 224.881 159.33 225.049 158.686C225.245 158.014 225.455 157.566 225.679 157.342ZM245.396 147.556C245.312 147.22 245.27 146.786 245.27 146.254C245.27 145.722 245.284 145.372 245.312 145.204C247.776 144.896 249.61 144.742 250.814 144.742C252.018 144.742 253.04 144.882 253.88 145.162C254.552 150.426 256.89 158.56 260.894 169.564L262.448 169.69C262.504 170.306 262.532 170.74 262.532 170.992C262.532 171.216 262.49 171.566 262.406 172.042C261.622 172.014 260.404 172 258.752 172C257.1 172 255.952 172.014 255.308 172.042C255.224 171.622 255.182 171.23 255.182 170.866C255.182 170.474 255.21 170.082 255.266 169.69L256.736 169.564C256.596 168.892 256.372 167.926 256.064 166.666C255.756 165.378 255.588 164.664 255.56 164.524C253.964 164.44 252.228 164.398 250.352 164.398C248.504 164.398 246.768 164.454 245.144 164.566L243.968 169.564L245.564 169.69C245.62 170.306 245.648 170.74 245.648 170.992C245.648 171.216 245.606 171.566 245.522 172.042C244.85 172.014 243.744 172 242.204 172C240.692 172 239.628 172.014 239.012 172.042C238.928 171.622 238.886 171.23 238.886 170.866C238.886 170.474 238.914 170.082 238.97 169.69L240.44 169.564C243.8 160.352 246.012 153.058 247.076 147.682L245.396 147.556ZM245.9 161.626C246.852 161.654 248.28 161.668 250.184 161.668C252.088 161.668 253.628 161.626 254.804 161.542C253.488 156.558 252.102 151.952 250.646 147.724H250.394C248.742 151.728 247.244 156.362 245.9 161.626ZM260.505 147.346C260.449 146.898 260.421 146.52 260.421 146.212C260.421 145.876 260.463 145.47 260.547 144.994C261.527 145.022 262.745 145.036 264.201 145.036C265.685 145.036 266.959 145.022 268.023 144.994C268.107 145.414 268.149 145.792 268.149 146.128C268.149 146.436 268.121 146.842 268.065 147.346L266.595 147.472C267.183 150.664 268.037 154.248 269.157 158.224C270.277 162.172 271.411 165.546 272.559 168.346H272.811C273.819 165.882 274.897 162.508 276.045 158.224C277.221 153.94 278.047 150.356 278.523 147.472L276.969 147.346C276.913 147.122 276.885 146.8 276.885 146.38C276.885 145.932 276.927 145.47 277.011 144.994C278.019 145.022 279.237 145.036 280.665 145.036C282.093 145.036 283.241 145.022 284.109 144.994C284.193 145.414 284.235 145.778 284.235 146.086C284.235 146.366 284.207 146.786 284.151 147.346L282.681 147.472C281.421 150.832 279.895 155.144 278.103 160.408C276.339 165.672 275.149 169.536 274.533 172C273.525 172.252 272.601 172.378 271.761 172.378C270.949 172.378 270.417 172.364 270.165 172.336C267.281 162.004 264.579 153.716 262.059 147.472L260.505 147.346ZM299.79 154.948C300.406 154.892 300.826 154.864 301.05 154.864C301.274 154.864 301.638 154.906 302.142 154.99C302.114 155.858 302.1 156.978 302.1 158.35C302.1 159.722 302.114 160.618 302.142 161.038C301.722 161.122 301.316 161.164 300.924 161.164C300.532 161.164 300.154 161.136 299.79 161.08L299.664 159.61C298.152 159.554 296.906 159.526 295.926 159.526C294.946 159.526 293.7 159.554 292.188 159.61C292.188 163.278 292.286 166.344 292.482 168.808C293.462 168.892 294.848 168.934 296.64 168.934C298.46 168.934 299.888 168.864 300.924 168.724L301.05 165.868C301.526 165.784 301.96 165.742 302.352 165.742C302.772 165.742 303.122 165.756 303.402 165.784C303.43 167.968 303.556 170.04 303.78 172L303.57 172.21C302.198 172.07 299.188 172 294.54 172C289.92 172 287.484 172.014 287.232 172.042C287.148 171.622 287.106 171.23 287.106 170.866C287.106 170.474 287.134 170.082 287.19 169.69L288.66 169.564C288.912 165.224 289.038 161.304 289.038 157.804C289.038 154.276 288.87 150.874 288.534 147.598L287.106 147.472C287.05 147.108 287.022 146.73 287.022 146.338C287.022 145.946 287.064 145.54 287.148 145.12C287.848 145.148 290.41 145.162 294.834 145.162C299.258 145.162 302.1 145.036 303.36 144.784L303.57 144.994C303.346 147.458 303.22 149.446 303.192 150.958C302.912 150.986 302.562 151 302.142 151C301.722 151 301.288 150.958 300.84 150.874L300.714 148.018C299.286 147.934 297.802 147.892 296.262 147.892C294.722 147.892 293.448 147.934 292.44 148.018C292.272 149.782 292.188 152.666 292.188 156.67C292.636 156.698 293.546 156.712 294.918 156.712C296.29 156.712 297.872 156.656 299.664 156.544L299.79 154.948ZM310.355 169.564C310.607 165.7 310.733 161.626 310.733 157.342C310.733 153.058 310.607 149.768 310.355 147.472L308.927 147.346C308.871 146.898 308.843 146.52 308.843 146.212C308.843 145.876 308.885 145.47 308.969 144.994C309.949 145.022 311.083 145.036 312.371 145.036C313.659 145.036 314.779 145.022 315.731 144.994C315.815 145.414 315.857 145.792 315.857 146.128C315.857 146.436 315.829 146.842 315.773 147.346L314.177 147.472C313.981 150.104 313.883 153.73 313.883 158.35C313.883 162.942 313.981 166.428 314.177 168.808C315.045 168.892 316.305 168.934 317.957 168.934C319.637 168.934 320.911 168.864 321.779 168.724L321.905 165.868C322.381 165.784 322.801 165.742 323.165 165.742C323.557 165.742 323.921 165.756 324.257 165.784C324.341 167.912 324.467 169.984 324.635 172L324.425 172.21C323.109 172.07 320.435 172 316.403 172C312.371 172 309.879 172.014 308.927 172.042C308.843 171.622 308.801 171.258 308.801 170.95C308.801 170.614 308.829 170.194 308.885 169.69L310.355 169.564Z" fill="black"/>
<path d="M12.3911 172.08L31.8688 74.7286" stroke="#008EB7" stroke-width="20" stroke-linecap="round"/>
<path d="M77.8475 165.42L32.1092 73.6396" stroke="#F7BD29" stroke-width="20" stroke-linecap="round"/>
<path d="M68.3194 164.145C67.252 169.564 70.7795 174.822 76.1982 175.89C81.6169 176.957 86.8749 173.43 87.9423 168.011L68.3194 164.145ZM87.9423 168.011L112.652 42.5713L93.0286 38.706L68.3194 164.145L87.9423 168.011Z" fill="#209C3A"/>
<circle cx="39.0316" cy="43.0171" r="12.5" transform="rotate(11.1435 39.0316 43.0171)" fill="#F7BD29"/>
<line x1="6.5" y1="-6.5" x2="35.5" y2="-6.5" transform="matrix(-0.64628 -0.7631 -0.7631 0.64628 121.771 67.7686)" stroke="#209C3A" stroke-width="13" stroke-linecap="round"/>
<line x1="77.8303" y1="49.753" x2="103.565" y2="36.3842" stroke="#209C3A" stroke-width="13" stroke-linecap="round"/>
</svg>
