<svg width="434" height="208" viewBox="0 0 434 208" fill="none" xmlns="http://www.w3.org/2000/svg">
<path d="M186.766 95H176.676V44.5859H186.766V95ZM236.477 95H225.684L206.242 61.8125V95H196.152V44.5859H206.945L226.387 77.8086V44.5859H236.477V95ZM267.027 95H256.973V54.6758H241.82V44.5859H282.145V54.6758H267.027V95ZM322.047 95H287.488V44.5859H322.047V54.6758H297.578V64.7656H314.137V74.8555H297.578V84.9102H322.047V95ZM339.203 54.6758V74.8555H349.293C350.676 74.8555 351.977 74.5977 353.195 74.082C354.414 73.543 355.48 72.8164 356.395 71.9023C357.309 70.9883 358.023 69.9219 358.539 68.7031C359.078 67.4609 359.348 66.1484 359.348 64.7656C359.348 63.3828 359.078 62.082 358.539 60.8633C358.023 59.6211 357.309 58.543 356.395 57.6289C355.48 56.7148 354.414 56 353.195 55.4844C351.977 54.9453 350.676 54.6758 349.293 54.6758H339.203ZM339.203 95H329.113V44.5859H349.293C351.145 44.5859 352.926 44.832 354.637 45.3242C356.348 45.793 357.941 46.4727 359.418 47.3633C360.918 48.2305 362.277 49.2852 363.496 50.5273C364.738 51.7461 365.793 53.1055 366.66 54.6055C367.551 56.1055 368.23 57.7109 368.699 59.4219C369.191 61.1328 369.438 62.9141 369.438 64.7656C369.438 66.5 369.215 68.1875 368.77 69.8281C368.348 71.4688 367.727 73.0273 366.906 74.5039C366.109 75.9805 365.125 77.3398 363.953 78.582C362.781 79.8242 361.469 80.9023 360.016 81.8164L365.605 95H354.883L350.488 84.8398L339.203 84.9102V95ZM197.84 178H187.785V137.676H172.633V127.586H212.957V137.676H197.84V178ZM228.391 137.676V157.855H238.48C239.863 157.855 241.164 157.598 242.383 157.082C243.602 156.543 244.668 155.816 245.582 154.902C246.496 153.988 247.211 152.922 247.727 151.703C248.266 150.461 248.535 149.148 248.535 147.766C248.535 146.383 248.266 145.082 247.727 143.863C247.211 142.621 246.496 141.543 245.582 140.629C244.668 139.715 243.602 139 242.383 138.484C241.164 137.945 239.863 137.676 238.48 137.676H228.391ZM228.391 178H218.301V127.586H238.48C240.332 127.586 242.113 127.832 243.824 128.324C245.535 128.793 247.129 129.473 248.605 130.363C250.105 131.23 251.465 132.285 252.684 133.527C253.926 134.746 254.98 136.105 255.848 137.605C256.738 139.105 257.418 140.711 257.887 142.422C258.379 144.133 258.625 145.914 258.625 147.766C258.625 149.5 258.402 151.188 257.957 152.828C257.535 154.469 256.914 156.027 256.094 157.504C255.297 158.98 254.312 160.34 253.141 161.582C251.969 162.824 250.656 163.902 249.203 164.816L254.793 178H244.07L239.676 167.84L228.391 167.91V178ZM294.941 157.855V147.766C294.941 146.383 294.672 145.082 294.133 143.863C293.617 142.621 292.902 141.543 291.988 140.629C291.074 139.715 289.996 139 288.754 138.484C287.535 137.945 286.234 137.676 284.852 137.676C283.469 137.676 282.156 137.945 280.914 138.484C279.695 139 278.629 139.715 277.715 140.629C276.801 141.543 276.074 142.621 275.535 143.863C275.02 145.082 274.762 146.383 274.762 147.766V157.855H294.941ZM305.031 178H294.941V167.91H274.762V178H264.707V147.766C264.707 144.977 265.234 142.363 266.289 139.926C267.344 137.465 268.773 135.32 270.578 133.492C272.406 131.664 274.539 130.223 276.977 129.168C279.438 128.113 282.062 127.586 284.852 127.586C287.641 127.586 290.254 128.113 292.691 129.168C295.152 130.223 297.297 131.664 299.125 133.492C300.953 135.32 302.395 137.465 303.449 139.926C304.504 142.363 305.031 144.977 305.031 147.766V178ZM351.191 127.586L334.633 178H324.543L308.055 127.586H319.516L329.57 161.23L339.66 127.586H351.191ZM390.602 178H356.043V127.586H390.602V137.676H366.133V147.766H382.691V157.855H366.133V167.91H390.602V178ZM432.965 178H397.668V127.586H407.758V167.91H432.965V178Z" fill="#333333"/>
<circle cx="30.0535" cy="199.054" r="8.05354" fill="#973735"/>
<circle cx="123.946" cy="199.054" r="8.05354" fill="#973735"/>
<rect x="55.5" y="3.5" width="43" height="29" rx="8.89007" stroke="#E44945" stroke-width="7"/>
<rect y="20" width="154" height="179" rx="24.7801" fill="#E44945"/>
<path fill-rule="evenodd" clip-rule="evenodd" d="M76.822 77.5921L52.2747 51.912L49.5878 49.1011L46.9009 51.912L29.4551 70.1629L27 72.7313L29.4551 75.2997L43.0739 89.547L45.7435 92.3398L48.4311 89.5643L56.8089 80.9125L59.3534 78.2848L56.767 75.6985L50.4105 69.342L45.1539 74.5987L48.9239 78.3687L45.7781 81.6174L37.284 72.7313L49.5878 59.8598L71.726 83.0196L47.3851 108.929L47.5495 109.083L47.3851 109.238L71.726 135.147L49.5878 158.307L37.284 145.435L45.7781 136.549L48.9239 139.798L45.1539 143.568L50.4105 148.825L56.767 142.468L59.3534 139.882L56.8089 137.254L48.4311 128.602L45.7435 125.827L43.0739 128.62L29.4551 142.867L27 145.435L29.4551 148.004L46.9009 166.254L49.5878 169.065L52.2747 166.254L76.822 140.574L101.466 166.356L104.153 169.167L106.84 166.356L124.285 148.105L126.741 145.536L124.285 142.968L110.667 128.721L107.997 125.928L105.31 128.703L96.9317 137.355L94.3872 139.983L96.9736 142.569L103.33 148.926L108.587 143.669L104.817 139.899L107.962 136.65L116.457 145.536L104.153 158.408L82.0146 135.248L106.355 109.339L106.083 109.083L106.355 108.828L82.0146 82.9185L104.153 59.7586L116.457 72.6302L107.962 81.5163L104.817 78.2676L108.587 74.4975L103.33 69.2409L96.9736 75.5973L94.3872 78.1837L96.9317 80.8114L105.31 89.4632L107.997 92.2386L110.667 89.4458L124.285 75.1986L126.741 72.6302L124.285 70.0618L106.84 51.8109L104.153 49L101.466 51.8109L76.822 77.5921ZM96.3955 109.083L76.9178 88.3506L57.4401 109.083L76.9178 129.816L96.3955 109.083ZM79.7101 109.149L76.7678 106.071L73.8255 109.149L76.7678 112.227L79.7101 109.149ZM81.0485 101.593L76.7678 97.1147L72.4871 101.593L69.5448 104.671L65.2642 109.149L69.5448 113.627L72.4871 116.706L76.7678 121.184L81.0485 116.706L83.9908 113.627L88.2714 109.149L83.9908 104.671L81.0485 101.593Z" fill="white"/>
</svg>
